PathFileType	4	(X/Y/Z)	/Users/itak/Documents/Research/Walk-IL/dataset/trc/00082_00006.trc
DataRate	CameraRate	NumFrames	NumMarkers	Units	OrigDataRate	OrigDataStartFrame	OrigNumFrames
100.000000	100.000000	4	53	mm	100.000000	187	500
Frame#	Time	RPSI			LPSI			L3			STRN			T10			C7			CLAV			RBAK			LBAK			LSHO			LUPA			LAEL			LAOL			LWTS			LWPS			LFRA			LIFD			LHPS			LHTS			RSHO			RUPA			RAEL			RAOL			RWTS			RWPS			RFRA			RIFD			RHTS			RHPS			RBHD			LFHD			RFHD			LBHD			LHIP			RHIP			RASI			LASI			LKNE			LTHI			LANK			LTIP			LTOE			LMT1			LMT5			LHEE			RKNE			RTHI			RANK			RTIP			RTOE			RMT1			RMT5			RHEE			
		X1	Y1	Z1	X2	Y2	Z2	X3	Y3	Z3	X4	Y4	Z4	X5	Y5	Z5	X6	Y6	Z6	X7	Y7	Z7	X8	Y8	Z8	X9	Y9	Z9	X10	Y10	Z10	X11	Y11	Z11	X12	Y12	Z12	X13	Y13	Z13	X14	Y14	Z14	X15	Y15	Z15	X16	Y16	Z16	X17	Y17	Z17	X18	Y18	Z18	X19	Y19	Z19	X20	Y20	Z20	X21	Y21	Z21	X22	Y22	Z22	X23	Y23	Z23	X24	Y24	Z24	X25	Y25	Z25	X26	Y26	Z26	X27	Y27	Z27	X28	Y28	Z28	X29	Y29	Z29	X30	Y30	Z30	X31	Y31	Z31	X32	Y32	Z32	X33	Y33	Z33	X34	Y34	Z34	X35	Y35	Z35	X36	Y36	Z36	X37	Y37	Z37	X38	Y38	Z38	X39	Y39	Z39	X40	Y40	Z40	X41	Y41	Z41	X42	Y42	Z42	X43	Y43	Z43	X44	Y44	Z44	X45	Y45	Z45	X46	Y46	Z46	X47	Y47	Z47	X48	Y48	Z48	X49	Y49	Z49	X50	Y50	Z50	X51	Y51	Z51	X52	Y52	Z52	X53	Y53	Z53	

188	1.87	-1036.10107421875	1016.908752441406	490.8474426269531	-1044.25341796875	1005.359619140625	314.6216735839844	-1035.171264648438	1065.98095703125	401.7825317382812	-769.6891479492188	1255.070678710938	400.246337890625	-1044.462768554688	1201.2451171875	402.5147705078125	-971.4639892578125	1465.07080078125	403.5833129882812	-795.2113647460938	1371.134887695312	399.2829284667969	-1038.348022460938	1328.07861328125	477.6953430175781	-998.4942626953125	1430.6259765625	303.4319152832031	-898.14794921875	1432.505493164062	228.1631774902344	-931.3453979492188	1314.138671875	145.9518127441406	-939.5691528320312	1104.609375	102.8176345825195	-991.605224609375	1086.584106445312	194.8534698486328	-869.9271850585938	851.4815063476562	126.9817123413086	-936.3215942382812	853.4541625976562	75.62946319580078	-933.3248901367188	995.8282470703125	81.33840942382812	-879.8234252929688	665.211181640625	128.6116943359375	-913.742919921875	770.2489013671875	67.63880157470703	-857.5095825195312	767.9757690429688	111.691276550293	-906.272705078125	1424.18017578125	576.9788208007812	-919.7963256835938	1354.48779296875	639.9071044921875	-954.7942504882812	1089.6875	671.0556030273438	-946.1806030273438	1069.435791015625	574.6442260742188	-804.2462158203125	847.0391845703125	604.543701171875	-867.3685302734375	824.61767578125	661.1182861328125	-939.2884521484375	1006.853881835938	674.7110595703125	-801.2811279296875	665.6400146484375	566.520263671875	-775.5498657226562	748.3743286132812	593.2220458984375	-823.4439697265625	738.7930908203125	653.2864379882812	-939.4468994140625	1647.445068359375	383.7727661132812	-726.443115234375	1660.582641601562	418.5885009765625	-780.5230712890625	1664.683959960938	304.1979064941406	-873.5606689453125	1634.898681640625	504.3343811035156	-936.6950073242188	943.5838012695312	226.6647644042969	-979.7700805664062	939.5881958007812	569.4886474609375	-853.6036987304688	948.2109985351562	552.9539184570312	-829.65380859375	950.1489868164062	286.5960693359375	-737.8717041015625	515.8870239257812	298.4958190917969	-809.490966796875	635.0174560546875	247.5120849609375	-733.1455078125	47.06597518920898	300.0472106933594	-735.7529296875	266.3936462402344	285.5039978027344	-532.1986083984375	73.61113739013672	308.8197021484375	-578.8909912109375	61.08493423461914	359.6525573730469	-631.9464111328125	50.60838317871094	262.864990234375	-783.2335815429688	41.64628601074219	376.5620422363281	-1011.347961425781	500.5392456054688	541.4691772460938	-945.448974609375	767.8225708007812	584.3339233398438	-1306.55029296875	99.33110046386719	530.73828125	-1082.890258789062	393.6242065429688	545.663330078125	-1113.450073242188	43.15845489501953	485.2864685058594	-1164.773559570312	55.95509719848633	447.7227172851562	-1191.919799804688	53.34102249145508	543.1879272460938	-1348.531616210938	128.6731719970703	475.5107116699219	
189	1.88	-1025.707641601562	1018.199768066406	489.6795349121094	-1035.151489257812	1006.623413085938	313.5977783203125	-1025.370361328125	1066.854248046875	400.429931640625	-760.303955078125	1256.625244140625	396.8523559570312	-1035.130859375	1202.176513671875	400.6568908691406	-962.5493774414062	1466.112548828125	400.7719421386719	-786.2028198242188	1372.57470703125	395.8997802734375	-1028.826293945312	1329.142333984375	475.4436950683594	-989.9402465820312	1431.474731445312	300.8023681640625	-889.8865966796875	1433.504638671875	225.1210327148438	-923.06591796875	1314.885131835938	143.2459259033203	-930.8605346679688	1105.19677734375	100.7095642089844	-982.6300048828125	1087.306396484375	192.9155578613281	-860.7394409179688	852.2426147460938	125.3656997680664	-927.2222290039062	854.0242919921875	74.0594482421875	-924.4325561523438	996.3900756835938	79.4759521484375	-870.7118530273438	665.9254150390625	127.539306640625	-904.6139526367188	770.806884765625	66.2890625	-848.34814453125	768.64794921875	110.3035125732422	-896.6823120117188	1425.941040039062	573.9465942382812	-909.9686889648438	1356.358154296875	636.94189453125	-945.754638671875	1092.019409179688	668.7474975585938	-936.6911010742188	1071.386840820312	572.386962890625	-795.4484252929688	848.890869140625	603.3995971679688	-858.8807983398438	826.64208984375	659.9088134765625	-930.4490356445312	1009.089294433594	672.792236328125	-792.5370483398438	667.4310913085938	565.7802734375	-766.8550415039062	750.1915893554688	592.418701171875	-814.92333984375	740.7845458984375	652.3443603515625	-930.880859375	1648.892578125	380.7087707519531	-717.7660522460938	1662.010864257812	415.1163330078125	-772.0501098632812	1666.141845703125	300.8440551757812	-864.7451171875	1636.294799804688	501.1108703613281	-928.3419799804688	944.5087280273438	225.0696105957031	-968.969970703125	940.8477783203125	568.1480712890625	-842.9240112304688	949.4611206054688	550.3041381835938	-820.6234130859375	951.39111328125	283.8609313964844	-730.9293212890625	516.04833984375	298.3055114746094	-801.8472290039062	635.5508422851562	247.0777130126953	-731.5712890625	47.09272384643555	300.0520629882812	-730.71044921875	266.1671447753906	285.4379577636719	-529.6676025390625	69.28124237060547	310.4216613769531	-577.272705078125	58.18096160888672	360.9055786132812	-629.8326416015625	48.91761016845703	263.6937561035156	-782.3088989257812	42.56517791748047	376.263916015625	-997.48681640625	500.4799499511719	540.5679931640625	-935.5314331054688	770.35986328125	584.2341918945312	-1302.042114257812	105.4991683959961	531.7052001953125	-1070.934204101562	394.5391235351562	545.8351440429688	-1113.627075195312	43.25872421264648	485.3178405761719	-1163.236206054688	56.84389114379883	448.0135192871094	-1189.904663085938	54.02826309204102	543.4528198242188	-1342.403198242188	136.6181030273438	476.5587463378906	
190	1.89	-1015.398193359375	1019.490783691406	488.4480590820312	-1026.115356445312	1007.854736328125	312.5130920410156	-1015.643737792969	1067.8330078125	399.0303039550781	-750.9595336914062	1258.206176757812	393.4231262207031	-1025.76513671875	1203.16357421875	398.7905578613281	-953.6163330078125	1467.201049804688	397.9625244140625	-777.2158813476562	1374.046508789062	392.4920349121094	-1019.319885253906	1330.285400390625	473.1836853027344	-981.3702392578125	1432.38916015625	298.18994140625	-881.6345825195312	1434.594482421875	222.0816497802734	-914.781494140625	1315.732543945312	140.5279693603516	-922.085693359375	1105.880981445312	98.61905670166016	-973.59228515625	1088.114501953125	190.9824981689453	-851.3575439453125	853.1370849609375	123.7986450195312	-917.9035034179688	854.7039794921875	72.51342010498047	-915.4140625	997.0551147460938	77.62861633300781	-861.3390502929688	666.7642211914062	126.5076522827148	-895.2356567382812	771.4756469726562	64.96589660644531	-838.94921875	769.46728515625	108.9750595092773	-887.0770874023438	1427.787353515625	570.91064453125	-900.0842895507812	1358.313720703125	633.984375	-936.7161254882812	1094.45751953125	666.4329223632812	-927.1090087890625	1073.4375	570.0922241210938	-786.6746215820312	850.8049926757812	602.3285522460938	-850.4335327148438	828.7317504882812	658.68701171875	-921.639404296875	1011.416320800781	670.8610229492188	-783.891845703125	669.2898559570312	565.0924682617188	-758.2398071289062	752.03662109375	591.6962280273438	-806.5617065429688	742.837158203125	651.43212890625	-922.3380126953125	1650.340942382812	377.6404113769531	-709.1156616210938	1663.472045898438	411.6681823730469	-763.5977172851562	1667.641357421875	297.5103149414062	-855.965576171875	1637.68505859375	497.8915405273438	-920.048583984375	945.428955078125	223.3878021240234	-958.2022705078125	942.1360473632812	566.753662109375	-832.30078125	950.7769775390625	547.5731811523438	-811.5879516601562	952.6502685546875	281.0143737792969	-724.0089111328125	516.1724243164062	298.0851135253906	-794.1190185546875	636.1452026367188	246.6458587646484	-730.1659545898438	47.13709259033203	300.0496215820312	-725.9390869140625	265.9123840332031	285.3453369140625	-527.419677734375	65.13793182373047	311.7625427246094	-575.8826293945312	55.50820922851562	362.0072326660156	-627.9906616210938	47.44785690307617	264.3520812988281	-781.4820556640625	43.37551879882812	375.9784851074219	-982.4682006835938	500.2099304199219	539.8369140625	-925.1429443359375	772.7667236328125	583.8889770507812	-1296.69482421875	112.1346130371094	532.6630859375	-1057.819702148438	395.2864990234375	546.1220092773438	-1113.8125	43.24106979370117	485.3648071289062	-1161.4384765625	57.78560638427734	448.3525695800781	-1187.624267578125	54.78753280639648	543.7059936523438	-1335.177978515625	145.0755615234375	477.5650024414062	
191	1.9	-1005.243286132812	1020.704528808594	487.1350708007812	-1017.171325683594	1009.013305664062	311.3455200195312	-1006.042053222656	1068.883056640625	397.5563659667969	-741.6918334960938	1259.750854492188	389.9923400878906	-1016.390747070312	1204.184814453125	396.8903198242188	-944.6834716796875	1468.306274414062	395.1513061523438	-768.2622680664062	1375.499755859375	389.0811462402344	-1009.863464355469	1331.480590820312	470.9056396484375	-972.7867431640625	1433.335327148438	295.5869750976562	-873.383544921875	1435.72802734375	219.0529937744141	-906.49267578125	1316.64013671875	137.7980194091797	-913.2709350585938	1106.622802734375	96.53089141845703	-964.5152587890625	1088.967895507812	189.0421752929688	-841.7884521484375	854.1329345703125	122.2677230834961	-908.37890625	855.4461669921875	70.99936676025391	-906.296875	997.7802124023438	75.78725433349609	-851.6486206054688	667.7008666992188	125.5090713500977	-885.6093139648438	772.2158813476562	63.67115783691406	-829.2969970703125	770.4104614257812	107.6931915283203	-877.4937744140625	1429.663818359375	567.8793334960938	-890.180419921875	1360.299926757812	631.035888671875	-927.6718139648438	1096.935302734375	664.1494140625	-917.4866943359375	1075.521850585938	567.812255859375	-777.9296264648438	852.7335205078125	601.3251342773438	-842.0081787109375	830.8421630859375	657.455810546875	-912.8482055664062	1013.778259277344	668.944580078125	-775.3488159179688	671.165771484375	564.4486083984375	-749.6826171875	753.8685913085938	591.0427856445312	-798.3390502929688	744.8999633789062	650.5470581054688	-913.8286743164062	1651.738647460938	374.5828552246094	-700.5137329101562	1664.931518554688	408.251953125	-755.1907348632812	1669.14892578125	294.2058410644531	-847.2259521484375	1639.016967773438	494.6960144042969	-911.8072509765625	946.32958984375	221.6183319091797	-947.5441284179688	943.3759155273438	565.2869873046875	-821.8057861328125	952.1118774414062	544.8077392578125	-802.57080078125	953.8919067382812	278.0994262695312	-717.1915283203125	516.2218627929688	297.7572021484375	-786.416748046875	636.7442016601562	246.1460113525391	-728.9495239257812	47.18613052368164	300.0423889160156	-721.4920654296875	265.6118469238281	285.1891784667969	-525.4810180664062	61.24948120117188	312.6992492675781	-574.6849975585938	53.13637542724609	362.8535766601562	-626.4737548828125	46.17890930175781	264.7757873535156	-780.7418212890625	44.07889938354492	375.7314453125	-966.339599609375	499.7130432128906	539.3031005859375	-913.9814453125	774.6530151367188	582.9288940429688	-1290.446533203125	119.2489395141602	533.5961303710938	-1043.544799804688	395.8464660644531	546.510986328125	-1113.885620117188	43.05564498901367	485.4355163574219	-1159.290893554688	58.8123893737793	448.7484130859375	-1185.02587890625	55.73490905761719	543.9713745117188	-1326.809204101562	154.0091247558594	478.5263061523438	
